<?xml version="1.0" encoding="utf-8"?>
<!-- Generator: Adobe Illustrator 24.0.1, SVG Export Plug-In . SVG Version: 6.00 Build 0)  -->
<svg version="1.1" id="Layer_1" xmlns="http://www.w3.org/2000/svg" xmlns:xlink="http://www.w3.org/1999/xlink" x="0px" y="0px"
	 viewBox="0 0 300 300" style="enable-background:new 0 0 300 300;" xml:space="preserve">
<style type="text/css">
	.st0{fill:#20FDAC;}
</style>
<image style="display:none;overflow:visible;" width="128" height="128" xlink:href="C:\Users\Agustin\Desktop\PixelKit_0049_Game-Pad_37719.png"  transform="matrix(0.9552 0 0 0.9552 88.8649 54.9065)">
</image>
<path class="st0" d="M274.1,119.3c-19-79-62.9-73-88.9-63.3C159.3,65.7,150,72.6,150,72.6s-9.3-6.9-35.2-16.6
	c-25.9-9.7-69.9-15.7-88.9,63.3c-19,79-15.7,129.4,27.3,130.3c43,0.9,62.5-51.3,75.4-51.3c13,0,21.3,0,21.3,0s8.4,0,21.3,0
	c13,0,32.4,52.2,75.4,51.3C289.8,248.6,293.1,198.3,274.1,119.3z M131.2,139.9c-0.3,0-0.6,0-0.9-0.1v0.1l-25-0.2v25.1h-0.7
	c0.1,0.3,0.1,0.6,0.1,0.9c0,3.1-4.8,5.7-10.8,5.7c-6,0-10.8-2.5-10.8-5.7c0-0.3,0-0.6,0.1-0.9h-0.1v-25.3l-24.7-0.2l0-0.3
	c-0.1,0-0.3,0-0.4,0c-3.1,0-5.6-4.9-5.6-10.8c0-6,2.6-10.8,5.8-10.7c0.1,0,0.2,0,0.4,0v-0.3l24.5,0.2V93.1h0.3c0-0.1,0-0.2,0-0.4
	c0-3.1,4.8-5.7,10.8-5.7c6,0,10.8,2.5,10.8,5.7c0,0.1,0,0.2,0,0.4h0.3v24.5l25.2,0.2v0.7c0.3-0.1,0.6-0.1,0.9-0.1
	c3.1,0,5.6,4.9,5.6,10.8C136.9,135.1,134.3,139.9,131.2,139.9z M192.3,162.2c-9.3,0-16.9-7.5-16.9-16.9c0-9.3,7.6-16.9,16.9-16.9
	c9.3,0,16.9,7.5,16.9,16.9C209.2,154.7,201.7,162.2,192.3,162.2z M221.6,126.8c-9.3,0-16.9-7.5-16.9-16.9c0-9.3,7.6-16.9,16.9-16.9
	c9.3,0,16.9,7.6,16.9,16.9C238.5,119.2,230.9,126.8,221.6,126.8z"/>
</svg>
